<?xml version="1.0" standalone="no"?>
<!DOCTYPE svg PUBLIC "-//W3C//DTD SVG 20010904//EN"
 "http://www.w3.org/TR/2001/REC-SVG-20010904/DTD/svg10.dtd">
<svg version="1.0" xmlns="http://www.w3.org/2000/svg"
 width="1200.000000pt" height="1200.000000pt" viewBox="0 0 1200.000000 1200.000000"
 preserveAspectRatio="xMidYMid meet">

<g transform="translate(0.000000,1200.000000) scale(0.100000,-0.100000)"
fill="#000000" stroke="none">
<path d="M4580 10254 c-762 -233 -1409 -431 -1437 -439 -61 -18 -120 -65 -139
-112 -35 -82 -5 -182 68 -230 33 -22 52 -27 97 -27 44 1 363 95 1436 424 759
232 1389 422 1400 422 11 0 655 -193 1430 -430 776 -236 1423 -433 1438 -436
37 -9 104 10 143 39 89 67 86 229 -4 294 -37 26 -2968 921 -3013 920 -19 0
-657 -192 -1419 -425z"/>
<path d="M1978 9460 c-50 -15 -93 -48 -115 -87 -24 -43 -73 -326 -98 -561 -34
-330 -44 -731 -25 -1087 121 -2317 1144 -4278 2925 -5608 313 -234 640 -441
1050 -666 309 -169 271 -169 580 0 632 346 1106 676 1570 1091 1461 1308 2296
3108 2405 5183 26 494 3 964 -70 1416 -22 136 -38 205 -53 232 -58 103 -213
122 -294 35 -12 -12 -376 -761 -810 -1663 l-790 -1640 -31 1 c-18 0 -1007 1
-2199 2 l-2168 2 -835 1632 c-459 897 -846 1644 -859 1660 -41 50 -124 77
-183 58z m1820 -4055 c1929 -3766 1758 -3430 1737 -3421 -30 11 -287 178 -445
287 -1452 1012 -2410 2435 -2800 4158 -139 616 -207 1343 -181 1936 6 132 11
253 11 270 0 17 4 25 9 20 5 -6 756 -1468 1669 -3250z m6102 2967 c26 -604
-40 -1324 -180 -1943 -426 -1883 -1529 -3403 -3214 -4429 l-39 -23 46 84 c25
46 506 946 1069 1999 l1023 1915 639 1328 c352 730 641 1326 642 1324 2 -2 8
-116 14 -255z m-1917 -2770 c-450 -848 -1969 -3682 -1974 -3682 -3 0 -419 807
-924 1793 -505 985 -945 1843 -978 1905 l-59 112 2002 0 2001 0 -68 -128z"/>
</g>
</svg>
